<?xml version="1.0" encoding="iso-8859-1"?>
<!-- Generator: Adobe Illustrator 19.0.0, SVG Export Plug-In . SVG Version: 6.00 Build 0)  -->
<svg version="1.1" id="Capa_1" xmlns="http://www.w3.org/2000/svg" xmlns:xlink="http://www.w3.org/1999/xlink" x="0px" y="0px"
	 viewBox="0 0 512.001 512.001" style="enable-background:new 0 0 512.001 512.001;" xml:space="preserve">
<path style="fill:#F0EEEE;" d="M308.927,355.945H203.073c-45.69,0-82.862,37.172-82.862,82.862v65.694c0,4.142,3.358,7.5,7.5,7.5
	h256.578c4.142,0,7.5-3.358,7.5-7.5v-65.694C391.789,393.117,354.617,355.945,308.927,355.945z"/>
<path style="fill:#FB403F;" d="M308.927,355.945H298.1c-4.142,0-7.5,3.358-7.5,7.5v141.056c0,4.142,3.358,7.5,7.5,7.5h86.189
	c4.142,0,7.5-3.358,7.5-7.5v-65.694C391.789,393.117,354.617,355.945,308.927,355.945z"/>
<path style="fill:#C21C1C;" d="M308.927,355.945H298.1c-1.331,0-2.578,0.35-3.662,0.958c39.727,6.092,70.251,40.5,70.251,81.904
	v65.694c0,4.142-3.358,7.5-7.5,7.5h27.1c4.142,0,7.5-3.358,7.5-7.5v-65.694C391.789,393.117,354.617,355.945,308.927,355.945z"/>
<path style="fill:#FB403F;" d="M213.9,355.945h-10.827c-45.69,0-82.862,37.172-82.862,82.862v65.694c0,4.142,3.358,7.5,7.5,7.5
	H213.9c4.142,0,7.5-3.358,7.5-7.5V363.445C221.4,359.303,218.042,355.945,213.9,355.945z"/>
<g>
	<path style="fill:#FF6464;" d="M366.421,421.124l-37.595-62.237c-3.344-6.414-9.877-10.385-17.133-10.385H298.1
		c-4.142,0-7.5,3.358-7.5,7.5v133.667v14.832v7.5h10.067v-0.456c0.801-0.292,1.561-0.72,2.238-1.285l48.192-40.208
		c2.587-2.159,3.418-5.778,2.029-8.849l-9.605-21.242l19.354-8.034c2.018-0.837,3.57-2.513,4.251-4.589
		C367.807,425.263,367.55,422.994,366.421,421.124z"/>
	<path style="fill:#FF6464;" d="M213.9,348.501h-13.591c-7.256,0-13.79,3.971-17.133,10.385l-37.595,62.237
		c-1.13,1.87-1.388,4.14-0.707,6.216s2.233,3.751,4.251,4.589l19.354,8.034l-9.604,21.242c-1.388,3.07-0.558,6.69,2.029,8.849
		l48.192,40.208c0.678,0.565,1.437,0.993,2.238,1.285v0.455H221.4v-7.5v-14.833V356.001
		C221.4,351.859,218.042,348.501,213.9,348.501z"/>
</g>
<path style="fill:#FA9E3E;" d="M298.1,267.731v95.35l-18.765,19.368c-6.12,6.317-14.54,9.882-23.335,9.882l0,0
	c-8.795,0-17.215-3.566-23.335-9.882L213.9,363.081v-95.35L298.1,267.731L298.1,267.731z"/>
<path style="fill:#2A434F;" d="M312.348,394.665l7.075-16.066c2.707-6.147,1.553-13.025-3.01-17.952
	c-4.564-4.928-11.336-6.603-17.669-4.375l-40.129,14.113c-0.998,0.351-1.873,0.913-2.615,1.605
	c-0.742-0.692-1.616-1.254-2.615-1.605l-40.129-14.113c-6.334-2.228-13.106-0.552-17.669,4.375s-5.716,11.806-3.01,17.952
	l7.075,16.067l-7.075,16.066c-2.707,6.146-1.553,13.025,3.01,17.952c3.229,3.486,7.562,5.345,12.064,5.345
	c1.861,0,3.751-0.317,5.604-0.969l40.129-14.113c0.998-0.351,1.873-0.913,2.615-1.605c0.741,0.692,1.616,1.254,2.615,1.605
	l40.129,14.113c1.853,0.652,3.743,0.969,5.605,0.969c4.502,0,8.836-1.859,12.064-5.345c4.563-4.927,5.716-11.806,3.01-17.952
	L312.348,394.665z"/>
<g>
	<path style="fill:#3D5868;" d="M256,364.586c-12.031,0-21.818,9.788-21.818,21.818v16.521c0,12.031,9.788,21.818,21.818,21.818
		c12.031,0,21.818-9.788,21.818-21.818v-16.521C277.819,374.374,268.031,364.586,256,364.586z"/>
	<path style="fill:#3D5868;" d="M256,450.001c-0.49,0-0.98-0.05-1.46-0.15c-0.48-0.09-0.96-0.24-1.41-0.42
		c-0.45-0.19-0.89-0.42-1.29-0.69c-0.41-0.28-0.8-0.59-1.14-0.94c-1.4-1.39-2.2-3.33-2.2-5.3c0-0.49,0.05-0.98,0.15-1.47
		c0.09-0.47,0.24-0.95,0.42-1.4c0.19-0.45,0.42-0.89,0.69-1.29c0.28-0.41,0.59-0.8,0.94-1.14c0.34-0.35,0.73-0.66,1.14-0.94
		c0.4-0.27,0.84-0.5,1.29-0.69c0.45-0.18,0.93-0.33,1.41-0.42c2.43-0.5,5.02,0.31,6.76,2.05c0.35,0.34,0.66,0.73,0.94,1.14
		c0.27,0.4,0.5,0.84,0.69,1.29c0.18,0.45,0.33,0.93,0.42,1.4c0.1,0.49,0.15,0.98,0.15,1.47s-0.05,0.98-0.15,1.47
		c-0.09,0.47-0.24,0.95-0.42,1.4c-0.19,0.45-0.42,0.89-0.69,1.29c-0.28,0.41-0.59,0.8-0.94,1.14c-0.34,0.35-0.73,0.66-1.14,0.94
		c-0.4,0.27-0.84,0.5-1.29,0.69c-0.45,0.18-0.93,0.33-1.4,0.42C256.98,449.951,256.49,450.001,256,450.001z"/>
	<path style="fill:#3D5868;" d="M256,482.251c-0.49,0-0.98-0.05-1.47-0.15c-0.47-0.09-0.95-0.24-1.4-0.42
		c-0.45-0.19-0.89-0.42-1.29-0.69c-0.41-0.28-0.8-0.59-1.14-0.94c-0.35-0.34-0.66-0.73-0.94-1.14c-0.27-0.4-0.5-0.84-0.68-1.29
		c-0.19-0.45-0.34-0.93-0.43-1.4c-0.1-0.49-0.15-0.98-0.15-1.47s0.05-0.98,0.15-1.47c0.09-0.47,0.24-0.95,0.43-1.4
		c0.18-0.45,0.41-0.89,0.68-1.29c0.28-0.41,0.59-0.8,0.94-1.14c0.34-0.35,0.73-0.66,1.14-0.94c0.4-0.27,0.84-0.5,1.29-0.68
		c0.45-0.19,0.93-0.34,1.4-0.43c0.97-0.2,1.97-0.2,2.94,0c0.47,0.09,0.95,0.24,1.4,0.43c0.45,0.18,0.89,0.41,1.29,0.68
		c0.41,0.28,0.8,0.59,1.14,0.94c0.35,0.34,0.66,0.73,0.94,1.14c0.27,0.4,0.5,0.84,0.69,1.29c0.18,0.45,0.33,0.93,0.42,1.4
		c0.1,0.49,0.15,0.98,0.15,1.47s-0.05,0.98-0.15,1.47c-0.09,0.47-0.24,0.95-0.42,1.4c-0.19,0.45-0.42,0.89-0.69,1.29
		c-0.28,0.41-0.59,0.8-0.94,1.14c-0.34,0.35-0.73,0.66-1.14,0.94c-0.4,0.27-0.84,0.5-1.29,0.69c-0.45,0.18-0.93,0.33-1.4,0.42
		C256.98,482.201,256.49,482.251,256,482.251z"/>
</g>
<path style="fill:#D9D4D4;" d="M309.009,32.203c-8.878-1.32-33.512-18.59-48.294-30.535c-2.2-1.779-5.213-2.166-7.793-1.006
	c-2.579,1.161-4.286,3.674-4.414,6.5c-0.106,2.346-0.317,10.05,0.958,18c-14.154-4.544-32.359-11.231-42.1-22.553
	c-1.782-2.072-4.549-3.01-7.226-2.449c-2.675,0.562-4.833,2.533-5.632,5.147c-3.268,10.687-0.762,20.313,2.718,27.423
	C145.067,38.977,104.5,83.495,104.5,137.31v117.691c0,4.142,3.358,7.5,7.5,7.5h34.54c2.275,0,4.427-1.033,5.851-2.807
	c1.423-1.774,1.964-4.099,1.471-6.32c-1.64-7.378-2.471-15.013-2.471-22.693v-46.7c0-0.117,0-0.234,0.001-0.352
	c19.853-2.06,35.409-19.629,35.409-40.928c0-9.542-3.145-18.665-8.8-25.938c2.591-2.761,5.348-5.375,8.251-7.826
	c15.759,9.864,41.703,15.843,69.749,15.843s53.99-5.979,69.749-15.843c2.903,2.451,5.66,5.065,8.251,7.826
	c-5.655,7.273-8.8,16.396-8.8,25.938c0,21.299,15.557,38.869,35.409,40.928c0,0.117,0,0.234,0,0.352v46.7
	c0,7.68-0.832,15.314-2.471,22.693c-0.494,2.221,0.047,4.546,1.471,6.32c1.424,1.774,3.576,2.807,5.851,2.807H400
	c4.142,0,7.5-3.358,7.5-7.5v-117.69C407.5,81.862,364.262,35.746,309.009,32.203z"/>
<path style="fill:#C6BEBE;" d="M309.009,32.203c-8.878-1.32-33.512-18.59-48.294-30.535c-2.2-1.779-5.213-2.166-7.793-1.006
	c-1.895,0.853-3.313,2.44-3.985,4.34c13.395,11.586,32.419,25.998,39.694,27.2c49.748,3.543,88.677,49.659,88.677,105.108v117.691
	c0,4.142-3.023,7.5-6.753,7.5H400c4.142,0,7.5-3.358,7.5-7.5v-117.69C407.5,81.862,364.262,35.746,309.009,32.203z"/>
<g>
	<path style="fill:#FA9E3E;" d="M125.839,223.991h49.369v56.61h-49.369c-15.632,0-28.305-12.673-28.305-28.305
		S110.207,223.991,125.839,223.991z"/>
	<path style="fill:#FA9E3E;" d="M386.161,223.991h-49.369v56.61h49.369c15.632,0,28.305-12.673,28.305-28.305
		S401.794,223.991,386.161,223.991z"/>
</g>
<path style="fill:#FFB56B;" d="M368.11,183.981v46.7c0,0.97-0.01,1.93-0.04,2.89c-0.02,0.97-0.06,1.92-0.11,2.88
	c-0.04,0.95-0.1,1.91-0.18,2.86c-0.07,0.94-0.15,1.89-0.25,2.83c-0.06,0.64-0.13,1.28-0.22,1.92c-0.05,0.55-0.12,1.1-0.2,1.65
	c-0.04,0.29-0.08,0.58-0.13,0.87c-0.08,0.65-0.18,1.3-0.29,1.95c-0.05,0.36-0.11,0.72-0.18,1.07c-0.11,0.71-0.24,1.41-0.38,2.12
	c-0.03,0.21-0.07,0.42-0.12,0.63c-0.14,0.75-0.3,1.49-0.46,2.23c-0.04,0.23-0.09,0.46-0.15,0.69c-0.11,0.51-0.23,1.02-0.35,1.52
	c-0.09,0.38-0.18,0.75-0.28,1.13c-0.13,0.54-0.27,1.08-0.42,1.62c-0.02,0.11-0.05,0.23-0.09,0.34c-0.18,0.67-0.36,1.34-0.56,2.01
	c-0.04,0.17-0.09,0.33-0.14,0.5c-0.19,0.63-0.37,1.25-0.57,1.87c-0.23,0.76-0.48,1.51-0.74,2.27c-0.25,0.75-0.51,1.5-0.78,2.24
	c-0.22,0.6-0.44,1.2-0.67,1.8c-0.22,0.59-0.45,1.18-0.69,1.77c-0.2,0.51-0.41,1.01-0.62,1.52c-0.13,0.32-0.26,0.63-0.4,0.95
	c-0.15,0.36-0.31,0.71-0.47,1.07c-0.24,0.55-0.48,1.1-0.74,1.64c-1.47,3.19-3.08,6.31-4.84,9.33c-0.36,0.63-0.73,1.26-1.11,1.88
	c-0.05,0.08-0.1,0.15-0.15,0.23c-0.37,0.62-0.75,1.23-1.14,1.83c-0.1,0.18-0.21,0.34-0.32,0.51c-0.36,0.56-0.72,1.11-1.08,1.65
	c-0.12,0.19-0.25,0.37-0.37,0.55c-0.34,0.5-0.68,0.99-1.02,1.48c-0.18,0.25-0.36,0.51-0.54,0.76c-0.9,1.26-1.82,2.51-2.78,3.73
	c-0.73,0.94-1.48,1.87-2.24,2.78c-0.49,0.6-0.99,1.19-1.49,1.77c-0.02,0.02-0.03,0.03-0.04,0.04c-0.56,0.65-1.13,1.29-1.71,1.93
	c-0.03,0.04-0.07,0.07-0.1,0.11c-0.37,0.4-0.74,0.81-1.12,1.21c-0.3,0.33-0.6,0.65-0.91,0.96c-0.17,0.18-0.35,0.37-0.53,0.55
	c-0.37,0.38-0.74,0.76-1.11,1.13c-0.63,0.63-1.28,1.26-1.92,1.88c-0.6,0.57-1.21,1.14-1.82,1.69l-0.41,0.37
	c-0.51,0.47-1.03,0.93-1.56,1.38l-1.68,1.43c-0.3,0.27-0.6,0.52-0.91,0.76l-4.27,3.33c-1.31,0.98-2.66,1.93-4.02,2.85l-1.65,1.09
	c-0.46,0.31-0.93,0.61-1.4,0.89l-1.79,1.11c-0.68,0.41-1.36,0.81-2.04,1.2c-0.71,0.41-1.42,0.81-2.14,1.2l-0.47,0.26
	c-1.51,0.82-3.04,1.6-4.59,2.34c-0.75,0.36-1.5,0.71-2.25,1.06l-0.71,0.31c-0.53,0.24-1.06,0.47-1.6,0.7l-0.8,0.34
	c-0.71,0.3-1.42,0.59-2.14,0.87c-0.73,0.29-1.45,0.57-2.19,0.84l-6.08,2.05c-0.6,0.19-1.2,0.37-1.81,0.54
	c-0.43,0.13-0.87,0.25-1.31,0.36l-2.14,0.57c-0.56,0.14-1.12,0.28-1.69,0.41c-0.4,0.1-0.8,0.19-1.21,0.28l-2.34,0.5
	c-0.68,0.14-1.37,0.27-2.05,0.4l-3.06,0.51c-0.53,0.09-1.05,0.16-1.58,0.23l-1.04,0.14c-0.49,0.07-0.98,0.13-1.48,0.18l-1.13,0.13
	c-0.33,0.04-0.66,0.07-0.99,0.1c-0.68,0.07-1.37,0.13-2.06,0.18l-0.8,0.06c-0.59,0.05-1.17,0.09-1.76,0.11l-0.84,0.05
	c-0.74,0.04-1.49,0.07-2.24,0.08l-3.31,0.06c-0.84,0-1.67-0.01-2.5-0.03c-0.68-0.01-1.35-0.03-2.02-0.06
	c-0.47-0.02-0.95-0.04-1.43-0.07c-50.91-2.66-92.82-39.28-103.51-87.63c-1.74-7.83-2.65-15.97-2.65-24.32v-46.7
	c0-2.63,0.1-5.25,0.29-7.83c1.08,0.12,2.19,0.18,3.3,0.18c17.57,0,31.82-15.05,31.82-33.63c0-10.36-4.43-19.62-11.4-25.79
	c5.3-6.47,11.37-12.29,18.07-17.34c13.08,10.52,39.53,17.71,70.03,17.71s56.95-7.19,70.03-17.71c6.7,5.05,12.77,10.87,18.07,17.34
	c-6.97,6.17-11.4,15.43-11.4,25.79c0,10.69,4.72,20.22,12.08,26.38c5.42,4.54,12.29,7.25,19.74,7.25c1.11,0,2.22-0.06,3.3-0.18
	C368.01,178.731,368.11,181.351,368.11,183.981z"/>
<path style="fill:#EF9245;" d="M368.11,183.981v46.7c0,0.97-0.01,1.93-0.04,2.89c-0.02,0.97-0.06,1.92-0.11,2.88
	c-0.04,0.95-0.1,1.91-0.18,2.86c-0.07,0.94-0.15,1.89-0.25,2.83c-0.06,0.64-0.13,1.28-0.22,1.92c-0.05,0.55-0.12,1.1-0.2,1.65
	c-0.04,0.29-0.08,0.58-0.13,0.87c-0.08,0.65-0.18,1.3-0.29,1.95c-0.05,0.36-0.11,0.72-0.18,1.07c-0.11,0.71-0.24,1.41-0.38,2.12
	c-0.03,0.21-0.07,0.42-0.12,0.63c-0.14,0.75-0.3,1.49-0.46,2.23c-0.04,0.23-0.09,0.46-0.15,0.69c-0.11,0.51-0.23,1.02-0.35,1.52
	c-0.09,0.38-0.18,0.75-0.28,1.13c-0.13,0.54-0.27,1.08-0.42,1.62c-0.02,0.11-0.05,0.23-0.09,0.34c-0.18,0.67-0.36,1.34-0.56,2.01
	c-0.04,0.17-0.09,0.33-0.14,0.5c-0.19,0.63-0.37,1.25-0.57,1.87c-0.23,0.76-0.48,1.51-0.74,2.27c-0.25,0.75-0.51,1.5-0.78,2.24
	c-0.22,0.6-0.44,1.2-0.67,1.8c-0.22,0.59-0.45,1.18-0.69,1.77c-0.2,0.51-0.41,1.01-0.62,1.52c-0.13,0.32-0.26,0.63-0.4,0.95
	c-0.15,0.36-0.31,0.71-0.47,1.07c-0.24,0.55-0.48,1.1-0.74,1.64c-1.47,3.19-3.08,6.31-4.84,9.33c-0.36,0.63-0.73,1.26-1.11,1.88
	c-0.05,0.08-0.1,0.15-0.15,0.23c-0.37,0.62-0.75,1.23-1.14,1.83c-0.1,0.18-0.21,0.34-0.32,0.51c-0.36,0.56-0.72,1.11-1.08,1.65
	c-0.12,0.19-0.25,0.37-0.37,0.55c-0.34,0.5-0.68,0.99-1.02,1.48c-0.18,0.25-0.36,0.51-0.54,0.76c-0.9,1.26-1.83,2.51-2.78,3.73
	c-0.73,0.94-1.48,1.87-2.24,2.78c-0.49,0.6-0.99,1.19-1.49,1.77c-0.02,0.02-0.03,0.03-0.04,0.04c-0.56,0.65-1.13,1.29-1.71,1.93
	c-0.03,0.04-0.07,0.07-0.1,0.11c-0.37,0.4-0.74,0.81-1.12,1.21c-0.3,0.33-0.6,0.65-0.91,0.96c-0.17,0.18-0.35,0.37-0.53,0.55
	c-0.37,0.38-0.74,0.76-1.11,1.13c-0.63,0.63-1.28,1.26-1.92,1.88c-0.6,0.57-1.21,1.14-1.82,1.69l-0.41,0.37
	c-0.51,0.47-1.03,0.93-1.56,1.38l-1.68,1.43c-0.3,0.27-0.6,0.52-0.91,0.76l-4.27,3.33c-1.32,0.98-2.66,1.93-4.02,2.85l-1.65,1.09
	c-0.46,0.31-0.93,0.61-1.4,0.89l-1.79,1.11c-0.68,0.41-1.36,0.81-2.04,1.2c-0.71,0.41-1.42,0.81-2.14,1.2l-0.47,0.26
	c-1.51,0.81-3.04,1.6-4.59,2.34c-0.75,0.36-1.5,0.71-2.25,1.06l-0.71,0.31c-0.53,0.24-1.06,0.47-1.6,0.7l-0.8,0.34
	c-0.71,0.3-1.42,0.59-2.14,0.87c-0.73,0.29-1.45,0.57-2.19,0.84l-6.08,2.05c-0.6,0.19-1.2,0.37-1.81,0.54
	c-0.43,0.13-0.87,0.25-1.31,0.36l-2.14,0.57c-0.56,0.14-1.12,0.28-1.69,0.41c-0.4,0.1-0.8,0.19-1.21,0.28l-2.34,0.5
	c-0.68,0.14-1.37,0.27-2.05,0.4l-3.06,0.51c-0.53,0.09-1.05,0.16-1.58,0.23l-1.04,0.14c-0.49,0.07-0.98,0.13-1.48,0.18l-1.13,0.13
	c-0.33,0.04-0.66,0.07-0.99,0.1c-0.68,0.07-1.37,0.13-2.06,0.18l-0.8,0.06c-0.59,0.05-1.17,0.09-1.76,0.11l-0.84,0.05
	c-0.74,0.04-1.49,0.07-2.24,0.08l-3.31,0.06c-0.84,0-1.67-0.01-2.5-0.03c-0.68-0.01-1.35-0.03-2.02-0.06
	c-0.47-0.02-0.95-0.04-1.43-0.07c52.81-2.96,94.73-46.73,94.73-100.29v-73.26c5.42,4.54,12.29,7.25,19.74,7.25
	c1.11,0,2.22-0.06,3.3-0.18C368.01,178.731,368.11,181.351,368.11,183.981z"/>
<g>
	<path style="fill:#19303F;" d="M310.324,213.964c-4.142,0-7.5-3.358-7.5-7.5v-2c0-4.142,3.358-7.5,7.5-7.5s7.5,3.358,7.5,7.5v2
		C317.824,210.606,314.466,213.964,310.324,213.964z"/>
	<path style="fill:#19303F;" d="M201.677,213.964c-4.142,0-7.5-3.358-7.5-7.5v-2c0-4.142,3.358-7.5,7.5-7.5s7.5,3.358,7.5,7.5v2
		C209.177,210.606,205.819,213.964,201.677,213.964z"/>
</g>
<path style="fill:#D9D4D4;" d="M309.643,288.583l-0.038-0.469c-1.904-23.415-21.462-41.447-44.954-41.447h-17.3
	c-23.492,0-43.05,18.032-44.954,41.447l-0.038,0.469c-34.838-19.018-58.472-55.983-58.472-98.47v40.564
	c0,61.919,50.195,112.115,112.115,112.115l0,0c61.919,0,112.115-50.195,112.115-112.115v-40.564
	C368.115,232.6,344.48,269.565,309.643,288.583z M256,302.228c-11.518,0-22.629-1.74-33.088-4.966
	c3.983-13.72,14.857-23.418,27.502-23.418h11.172c12.645,0,23.519,9.698,27.502,23.418C278.629,300.488,267.518,302.228,256,302.228
	L256,302.228z"/>
<path style="fill:#696970;" d="M209.18,235.641v67.26c0,20.06-16.33,36.39-36.4,36.39c-20.06,0-36.39-16.33-36.39-36.39v-22.3h15
	v22.3c0,11.79,9.6,21.39,21.39,21.39c11.8,0,21.4-9.6,21.4-21.39v-67.26c0-4.14,3.35-7.5,7.5-7.5
	C205.82,228.141,209.18,231.501,209.18,235.641z"/>
<path style="fill:#3D5868;" d="M201.677,243.141c-20.224,0-36.677-16.453-36.677-36.677s16.453-36.677,36.677-36.677
	s36.678,16.453,36.678,36.677S221.901,243.141,201.677,243.141z M201.677,184.787c-11.953,0-21.677,9.725-21.677,21.677
	c0,11.953,9.725,21.677,21.677,21.677c11.953,0,21.678-9.725,21.678-21.677C223.354,194.511,213.63,184.787,201.677,184.787z"/>
<g>
</g>
<g>
</g>
<g>
</g>
<g>
</g>
<g>
</g>
<g>
</g>
<g>
</g>
<g>
</g>
<g>
</g>
<g>
</g>
<g>
</g>
<g>
</g>
<g>
</g>
<g>
</g>
<g>
</g>
</svg>
